<svg width="100%" height="100%" viewBox="0 0 744 599" fill="none" xmlns="http://www.w3.org/2000/svg">
<g clip-path="url(#clip0_37_2)">
<path fill-rule="evenodd" clip-rule="evenodd" d="M522.522 311.884C544.268 298.765 551.261 270.5 538.141 248.754L413.809 42.6688C405.561 28.9979 390.813 20.5834 374.847 20.4399C358.882 20.2964 343.984 28.4443 335.492 41.9648L206.05 248.05C192.542 269.557 199.026 297.942 220.533 311.451C242.04 324.959 270.425 318.475 283.934 296.968L362.414 172.02C367.565 163.819 379.551 163.927 384.554 172.219L459.391 296.264C472.511 318.011 500.775 325.004 522.522 311.884Z" fill="url(#paint0_linear_37_2)"/>
<path d="M200.71 44.2826V164.08C200.71 175.71 215.932 180.084 222.107 170.229L280.012 77.8037C286.065 68.1418 289.275 56.9708 289.275 45.5693V44.2826C289.275 19.8259 269.449 -0.000183105 244.992 -0.000183105C220.536 -0.000183105 200.71 19.8259 200.71 44.2826Z" fill="url(#paint1_linear_37_2)"/>
<path d="M495.36 6.86646e-05C522.639 6.86646e-05 544.753 22.1138 544.753 49.3924C544.753 76.671 522.639 98.7847 495.36 98.7847C468.082 98.7847 445.968 76.671 445.968 49.3924C445.968 22.1138 468.082 6.86646e-05 495.36 6.86646e-05Z" fill="#F9F9F9"/>
<path d="M360.619 521H337.025V455.935V390.869H360.619V521Z" fill="#F9F9F9"/>
<path d="M494.289 521H470.695V466.552C470.695 463.467 470.15 460.714 469.061 458.294C468.033 455.814 466.611 453.696 464.796 451.942C462.981 450.187 460.834 448.856 458.353 447.949C455.933 446.981 453.302 446.497 450.458 446.497H409.168V521H385.574V434.609C385.574 432.976 385.877 431.463 386.482 430.072C387.087 428.62 387.934 427.38 389.023 426.351C390.112 425.262 391.382 424.415 392.834 423.81C394.286 423.205 395.829 422.903 397.462 422.903H450.64C453.604 422.903 456.72 423.235 459.987 423.901C463.314 424.566 466.581 425.655 469.787 427.168C473.054 428.62 476.139 430.495 479.043 432.794C482.008 435.033 484.609 437.785 486.848 441.052C489.147 444.258 490.961 447.979 492.292 452.214C493.623 456.449 494.289 461.228 494.289 466.552V521Z" fill="#F9F9F9"/>
<path d="M621.697 487.877C621.697 491.931 621.183 495.591 620.155 498.858C619.126 502.064 617.765 504.908 616.071 507.388C614.377 509.808 612.411 511.895 610.172 513.65C607.934 515.343 605.575 516.735 603.094 517.824C600.674 518.913 598.194 519.73 595.653 520.274C593.173 520.758 590.813 521 588.575 521H546.014C542.748 521 539.178 520.425 535.306 519.276C531.435 518.126 527.835 516.251 524.508 513.65C521.241 510.988 518.488 507.57 516.25 503.395C514.072 499.16 512.983 493.988 512.983 487.877V455.935C512.983 449.885 514.072 444.773 516.25 440.598C518.488 436.364 521.241 432.945 524.508 430.344C527.835 427.682 531.435 425.776 535.306 424.627C539.178 423.477 542.748 422.903 546.014 422.903H588.575C594.625 422.903 599.767 423.992 604.002 426.17C608.237 428.348 611.655 431.1 614.256 434.428C616.857 437.694 618.733 441.264 619.882 445.136C621.092 449.008 621.697 452.607 621.697 455.935V487.877ZM598.103 456.116C598.103 452.849 597.286 450.429 595.653 448.856C594.02 447.283 591.66 446.497 588.575 446.497H546.196C543.05 446.497 540.66 447.314 539.027 448.947C537.394 450.52 536.577 452.849 536.577 455.935V487.877C536.577 490.963 537.394 493.322 539.027 494.956C540.66 496.589 543.05 497.406 546.196 497.406H588.575C591.781 497.406 594.171 496.589 595.744 494.956C597.317 493.322 598.103 490.963 598.103 487.877V456.116Z" fill="#F9F9F9"/>
<path d="M743.117 488.513C743.117 491.78 742.542 495.319 741.392 499.13C740.243 502.881 738.367 506.39 735.766 509.657C733.225 512.863 729.867 515.555 725.693 517.733C721.579 519.911 716.558 521 710.629 521H668.069C664.802 521 661.263 520.425 657.452 519.276C653.701 518.126 650.192 516.281 646.925 513.74C643.719 511.139 641.026 507.781 638.848 503.667C636.671 499.493 635.582 494.441 635.582 488.513C635.582 485.246 636.156 481.707 637.306 477.895C638.455 474.084 640.3 470.575 642.841 467.369C645.443 464.102 648.8 461.379 652.914 459.201C657.089 457.024 662.14 455.935 668.069 455.935H710.629V478.44H668.069C664.863 478.44 662.382 479.438 660.628 481.434C658.873 483.37 657.996 485.79 657.996 488.694C657.996 491.78 658.994 494.199 660.991 495.954C663.048 497.648 665.467 498.495 668.25 498.495H710.629C713.836 498.495 716.316 497.527 718.07 495.591C719.825 493.655 720.702 491.235 720.702 488.331V455.39C720.702 452.305 719.734 449.855 717.798 448.04C715.923 446.225 713.533 445.317 710.629 445.317H658.813V422.903H710.629C713.896 422.903 717.405 423.477 721.156 424.627C724.967 425.776 728.476 427.652 731.682 430.253C734.949 432.794 737.672 436.152 739.85 440.326C742.028 444.44 743.117 449.461 743.117 455.39V488.513Z" fill="#F9F9F9"/>
<path d="M161.529 422.903C157.778 431.312 153.725 439.6 149.369 447.768C145.013 455.874 140.446 463.557 135.666 470.817C130.948 478.077 126.108 484.792 121.147 490.963C116.186 497.073 111.256 502.367 106.355 506.844C101.515 511.26 96.7663 514.739 92.108 517.28C87.5101 519.76 83.1543 521 79.0405 521C77.3465 521 75.7736 520.698 74.3216 520.093C72.8697 519.488 71.5992 518.671 70.5103 517.643C69.4213 516.554 68.5743 515.283 67.9693 513.831C67.3644 512.379 67.0619 510.806 67.0619 509.112V465.1L20.2365 517.461C19.0266 518.671 17.6956 519.578 16.2437 520.183C14.8522 520.728 13.4003 521 11.8878 521C10.2544 521 8.71169 520.698 7.25974 520.093C5.86829 519.488 4.62809 518.671 3.53912 517.643C2.45016 516.554 1.57294 515.283 0.907468 513.831C0.302489 512.379 0 510.806 0 509.112V422.903H23.5942V478.803L70.601 426.261C72.2949 424.567 74.2914 423.508 76.5903 423.084C78.9497 422.6 81.2486 422.842 83.487 423.81C85.7255 424.718 87.4799 426.17 88.7504 428.166C90.0813 430.102 90.7468 432.25 90.7468 434.609V490.691C95.8286 485.79 100.426 480.618 104.54 475.173C108.654 469.728 112.466 464.132 115.974 458.385C119.544 452.577 122.871 446.709 125.957 440.78C129.102 434.791 132.158 428.832 135.122 422.903H161.529Z" fill="url(#paint2_linear_37_2)"/>
<path d="M193.654 402.757H170.059V381.432H193.654V402.757ZM193.654 521H170.059V422.903H193.654V521Z" fill="url(#paint3_linear_37_2)"/>
<path d="M309.265 430.163C310.233 432.401 310.475 434.67 309.991 436.969C309.568 439.268 308.539 441.264 306.906 442.958L252.367 497.406H309.084V521H223.963C221.543 521 219.335 520.335 217.339 519.004C215.403 517.612 213.951 515.858 212.983 513.74C212.075 511.502 211.833 509.233 212.257 506.934C212.741 504.575 213.86 502.518 215.614 500.764L269.881 446.497H213.164V422.903H298.466C300.826 422.903 302.973 423.538 304.909 424.809C306.906 426.079 308.358 427.864 309.265 430.163Z" fill="url(#paint4_linear_37_2)"/>
<path d="M32.402 561.302L25.534 585H22.066L16.558 565.926L10.846 585L7.41198 585.034L0.781982 561.302H4.07998L9.24798 581.396L14.96 561.302H18.428L23.868 581.328L29.07 561.302H32.402ZM61.9679 574.97C61.9679 575.559 61.9339 576.183 61.8659 576.84H46.9739C47.0873 578.676 47.7106 580.115 48.8439 581.158C49.9999 582.178 51.3939 582.688 53.0259 582.688C54.3633 582.688 55.4739 582.382 56.3579 581.77C57.2646 581.135 57.8993 580.297 58.2619 579.254H61.5939C61.0953 581.045 60.0979 582.507 58.6019 583.64C57.1059 584.751 55.2473 585.306 53.0259 585.306C51.2579 585.306 49.6713 584.909 48.2659 584.116C46.8833 583.323 45.7953 582.201 45.0019 580.75C44.2086 579.277 43.8119 577.577 43.8119 575.65C43.8119 573.723 44.1973 572.035 44.9679 570.584C45.7386 569.133 46.8153 568.023 48.1979 567.252C49.6033 566.459 51.2126 566.062 53.0259 566.062C54.7939 566.062 56.3579 566.447 57.7179 567.218C59.0779 567.989 60.1206 569.054 60.8459 570.414C61.5939 571.751 61.9679 573.27 61.9679 574.97ZM58.7719 574.324C58.7719 573.145 58.5113 572.137 57.9899 571.298C57.4686 570.437 56.7546 569.791 55.8479 569.36C54.9639 568.907 53.9779 568.68 52.8899 568.68C51.3259 568.68 49.9886 569.179 48.8779 570.176C47.7899 571.173 47.1666 572.556 47.0079 574.324H58.7719ZM100.99 585.238C99.4264 585.238 98.021 584.966 96.7744 584.422C95.5504 583.855 94.587 583.085 93.8844 582.11C93.1817 581.113 92.819 579.968 92.7964 578.676H96.0944C96.2077 579.787 96.661 580.727 97.4544 581.498C98.2704 582.246 99.449 582.62 100.99 582.62C102.464 582.62 103.62 582.257 104.458 581.532C105.32 580.784 105.75 579.832 105.75 578.676C105.75 577.769 105.501 577.033 105.002 576.466C104.504 575.899 103.88 575.469 103.132 575.174C102.384 574.879 101.376 574.562 100.106 574.222C98.5424 573.814 97.2844 573.406 96.3324 572.998C95.403 572.59 94.5984 571.955 93.9184 571.094C93.261 570.21 92.9324 569.031 92.9324 567.558C92.9324 566.266 93.261 565.121 93.9184 564.124C94.5757 563.127 95.4937 562.356 96.6724 561.812C97.8737 561.268 99.245 560.996 100.786 560.996C103.008 560.996 104.821 561.551 106.226 562.662C107.654 563.773 108.459 565.246 108.64 567.082H105.24C105.127 566.175 104.651 565.382 103.812 564.702C102.974 563.999 101.863 563.648 100.48 563.648C99.1884 563.648 98.1344 563.988 97.3184 564.668C96.5024 565.325 96.0944 566.255 96.0944 567.456C96.0944 568.317 96.3324 569.02 96.8084 569.564C97.307 570.108 97.9077 570.527 98.6104 570.822C99.3357 571.094 100.344 571.411 101.636 571.774C103.2 572.205 104.458 572.635 105.41 573.066C106.362 573.474 107.178 574.12 107.858 575.004C108.538 575.865 108.878 577.044 108.878 578.54C108.878 579.696 108.572 580.784 107.96 581.804C107.348 582.824 106.442 583.651 105.24 584.286C104.039 584.921 102.622 585.238 100.99 585.238ZM126.385 568.918V579.9C126.385 580.807 126.578 581.453 126.963 581.838C127.349 582.201 128.017 582.382 128.969 582.382H131.247V585H128.459C126.737 585 125.445 584.603 124.583 583.81C123.722 583.017 123.291 581.713 123.291 579.9V568.918H120.877V566.368H123.291V561.676H126.385V566.368H131.247V568.918H126.385ZM147.27 569.394C147.814 568.329 148.585 567.501 149.582 566.912C150.602 566.323 151.838 566.028 153.288 566.028V569.224H152.472C149.004 569.224 147.27 571.105 147.27 574.868V585H144.176V566.368H147.27V569.394ZM164.884 575.616C164.884 573.712 165.269 572.046 166.04 570.618C166.81 569.167 167.864 568.045 169.202 567.252C170.562 566.459 172.069 566.062 173.724 566.062C175.356 566.062 176.772 566.413 177.974 567.116C179.175 567.819 180.07 568.703 180.66 569.768V566.368H183.788V585H180.66V581.532C180.048 582.62 179.13 583.527 177.906 584.252C176.704 584.955 175.299 585.306 173.69 585.306C172.035 585.306 170.539 584.898 169.202 584.082C167.864 583.266 166.81 582.121 166.04 580.648C165.269 579.175 164.884 577.497 164.884 575.616ZM180.66 575.65C180.66 574.245 180.376 573.021 179.81 571.978C179.243 570.935 178.472 570.142 177.498 569.598C176.546 569.031 175.492 568.748 174.336 568.748C173.18 568.748 172.126 569.02 171.174 569.564C170.222 570.108 169.462 570.901 168.896 571.944C168.329 572.987 168.046 574.211 168.046 575.616C168.046 577.044 168.329 578.291 168.896 579.356C169.462 580.399 170.222 581.203 171.174 581.77C172.126 582.314 173.18 582.586 174.336 582.586C175.492 582.586 176.546 582.314 177.498 581.77C178.472 581.203 179.243 580.399 179.81 579.356C180.376 578.291 180.66 577.055 180.66 575.65ZM201.97 568.918V579.9C201.97 580.807 202.163 581.453 202.548 581.838C202.934 582.201 203.602 582.382 204.554 582.382H206.832V585H204.044C202.322 585 201.03 584.603 200.168 583.81C199.307 583.017 198.876 581.713 198.876 579.9V568.918H196.462V566.368H198.876V561.676H201.97V566.368H206.832V568.918H201.97ZM236.761 574.97C236.761 575.559 236.727 576.183 236.659 576.84H221.767C221.88 578.676 222.504 580.115 223.637 581.158C224.793 582.178 226.187 582.688 227.819 582.688C229.156 582.688 230.267 582.382 231.151 581.77C232.058 581.135 232.692 580.297 233.055 579.254H236.387C235.888 581.045 234.891 582.507 233.395 583.64C231.899 584.751 230.04 585.306 227.819 585.306C226.051 585.306 224.464 584.909 223.059 584.116C221.676 583.323 220.588 582.201 219.795 580.75C219.002 579.277 218.605 577.577 218.605 575.65C218.605 573.723 218.99 572.035 219.761 570.584C220.532 569.133 221.608 568.023 222.991 567.252C224.396 566.459 226.006 566.062 227.819 566.062C229.587 566.062 231.151 566.447 232.511 567.218C233.871 567.989 234.914 569.054 235.639 570.414C236.387 571.751 236.761 573.27 236.761 574.97ZM233.565 574.324C233.565 573.145 233.304 572.137 232.783 571.298C232.262 570.437 231.548 569.791 230.641 569.36C229.757 568.907 228.771 568.68 227.683 568.68C226.119 568.68 224.782 569.179 223.671 570.176C222.583 571.173 221.96 572.556 221.801 574.324H233.565ZM257.709 566.062C259.318 566.062 260.724 566.413 261.925 567.116C263.149 567.819 264.056 568.703 264.645 569.768V566.368H267.773V585.408C267.773 587.108 267.41 588.615 266.685 589.93C265.96 591.267 264.917 592.31 263.557 593.058C262.22 593.806 260.656 594.18 258.865 594.18C256.417 594.18 254.377 593.602 252.745 592.446C251.113 591.29 250.15 589.715 249.855 587.72H252.915C253.255 588.853 253.958 589.76 255.023 590.44C256.088 591.143 257.369 591.494 258.865 591.494C260.565 591.494 261.948 590.961 263.013 589.896C264.101 588.831 264.645 587.335 264.645 585.408V581.498C264.033 582.586 263.126 583.493 261.925 584.218C260.724 584.943 259.318 585.306 257.709 585.306C256.054 585.306 254.547 584.898 253.187 584.082C251.85 583.266 250.796 582.121 250.025 580.648C249.254 579.175 248.869 577.497 248.869 575.616C248.869 573.712 249.254 572.046 250.025 570.618C250.796 569.167 251.85 568.045 253.187 567.252C254.547 566.459 256.054 566.062 257.709 566.062ZM264.645 575.65C264.645 574.245 264.362 573.021 263.795 571.978C263.228 570.935 262.458 570.142 261.483 569.598C260.531 569.031 259.477 568.748 258.321 568.748C257.165 568.748 256.111 569.02 255.159 569.564C254.207 570.108 253.448 570.901 252.881 571.944C252.314 572.987 252.031 574.211 252.031 575.616C252.031 577.044 252.314 578.291 252.881 579.356C253.448 580.399 254.207 581.203 255.159 581.77C256.111 582.314 257.165 582.586 258.321 582.586C259.477 582.586 260.531 582.314 261.483 581.77C262.458 581.203 263.228 580.399 263.795 579.356C264.362 578.291 264.645 577.055 264.645 575.65ZM283.78 563.342C283.19 563.342 282.692 563.138 282.284 562.73C281.876 562.322 281.672 561.823 281.672 561.234C281.672 560.645 281.876 560.146 282.284 559.738C282.692 559.33 283.19 559.126 283.78 559.126C284.346 559.126 284.822 559.33 285.208 559.738C285.616 560.146 285.82 560.645 285.82 561.234C285.82 561.823 285.616 562.322 285.208 562.73C284.822 563.138 284.346 563.342 283.78 563.342ZM285.276 566.368V585H282.182V566.368H285.276ZM302.041 582.45H311.187V585H298.505V582.45L307.549 568.884H298.573V566.368H311.119V568.884L302.041 582.45ZM341.382 574.97C341.382 575.559 341.348 576.183 341.28 576.84H326.388C326.501 578.676 327.124 580.115 328.258 581.158C329.414 582.178 330.808 582.688 332.44 582.688C333.777 582.688 334.888 582.382 335.772 581.77C336.678 581.135 337.313 580.297 337.676 579.254H341.008C340.509 581.045 339.512 582.507 338.016 583.64C336.52 584.751 334.661 585.306 332.44 585.306C330.672 585.306 329.085 584.909 327.68 584.116C326.297 583.323 325.209 582.201 324.416 580.75C323.622 579.277 323.226 577.577 323.226 575.65C323.226 573.723 323.611 572.035 324.382 570.584C325.152 569.133 326.229 568.023 327.612 567.252C329.017 566.459 330.626 566.062 332.44 566.062C334.208 566.062 335.772 566.447 337.132 567.218C338.492 567.989 339.534 569.054 340.26 570.414C341.008 571.751 341.382 573.27 341.382 574.97ZM338.186 574.324C338.186 573.145 337.925 572.137 337.404 571.298C336.882 570.437 336.168 569.791 335.262 569.36C334.378 568.907 333.392 568.68 332.304 568.68C330.74 568.68 329.402 569.179 328.292 570.176C327.204 571.173 326.58 572.556 326.422 574.324H338.186ZM357.841 580.716L354.033 589.862H351.959L354.441 580.716H357.841ZM405.402 561.302L397.684 576.058V585H394.59V576.058L386.838 561.302H390.272L396.12 573.304L401.968 561.302H405.402ZM425.972 585.306C424.226 585.306 422.64 584.909 421.212 584.116C419.806 583.323 418.696 582.201 417.88 580.75C417.086 579.277 416.69 577.577 416.69 575.65C416.69 573.746 417.098 572.069 417.914 570.618C418.752 569.145 419.886 568.023 421.314 567.252C422.742 566.459 424.34 566.062 426.108 566.062C427.876 566.062 429.474 566.459 430.902 567.252C432.33 568.023 433.452 569.133 434.268 570.584C435.106 572.035 435.526 573.723 435.526 575.65C435.526 577.577 435.095 579.277 434.234 580.75C433.395 582.201 432.25 583.323 430.8 584.116C429.349 584.909 427.74 585.306 425.972 585.306ZM425.972 582.586C427.082 582.586 428.125 582.325 429.1 581.804C430.074 581.283 430.856 580.501 431.446 579.458C432.058 578.415 432.364 577.146 432.364 575.65C432.364 574.154 432.069 572.885 431.48 571.842C430.89 570.799 430.12 570.029 429.168 569.53C428.216 569.009 427.184 568.748 426.074 568.748C424.94 568.748 423.898 569.009 422.946 569.53C422.016 570.029 421.268 570.799 420.702 571.842C420.135 572.885 419.852 574.154 419.852 575.65C419.852 577.169 420.124 578.449 420.668 579.492C421.234 580.535 421.982 581.317 422.912 581.838C423.841 582.337 424.861 582.586 425.972 582.586ZM465.298 566.368V585H462.204V582.246C461.614 583.198 460.787 583.946 459.722 584.49C458.679 585.011 457.523 585.272 456.254 585.272C454.803 585.272 453.5 584.977 452.344 584.388C451.188 583.776 450.27 582.869 449.59 581.668C448.932 580.467 448.604 579.005 448.604 577.282V566.368H451.664V576.874C451.664 578.71 452.128 580.127 453.058 581.124C453.987 582.099 455.256 582.586 456.866 582.586C458.52 582.586 459.824 582.076 460.776 581.056C461.728 580.036 462.204 578.551 462.204 576.602V566.368H465.298ZM512.532 561.302V563.818H506.072V585H502.978V563.818H496.484V561.302H512.532ZM528.615 569.394C529.159 568.329 529.929 567.501 530.927 566.912C531.947 566.323 533.182 566.028 534.633 566.028V569.224H533.817C530.349 569.224 528.615 571.105 528.615 574.868V585H525.521V566.368H528.615V569.394ZM546.228 575.616C546.228 573.712 546.614 572.046 547.384 570.618C548.155 569.167 549.209 568.045 550.546 567.252C551.906 566.459 553.414 566.062 555.068 566.062C556.7 566.062 558.117 566.413 559.318 567.116C560.52 567.819 561.415 568.703 562.004 569.768V566.368H565.132V585H562.004V581.532C561.392 582.62 560.474 583.527 559.25 584.252C558.049 584.955 556.644 585.306 555.034 585.306C553.38 585.306 551.884 584.898 550.546 584.082C549.209 583.266 548.155 582.121 547.384 580.648C546.614 579.175 546.228 577.497 546.228 575.616ZM562.004 575.65C562.004 574.245 561.721 573.021 561.154 571.978C560.588 570.935 559.817 570.142 558.842 569.598C557.89 569.031 556.836 568.748 555.68 568.748C554.524 568.748 553.47 569.02 552.518 569.564C551.566 570.108 550.807 570.901 550.24 571.944C549.674 572.987 549.39 574.211 549.39 575.616C549.39 577.044 549.674 578.291 550.24 579.356C550.807 580.399 551.566 581.203 552.518 581.77C553.47 582.314 554.524 582.586 555.68 582.586C556.836 582.586 557.89 582.314 558.842 581.77C559.817 581.203 560.588 580.399 561.154 579.356C561.721 578.291 562.004 577.055 562.004 575.65ZM588.619 566.028C590.886 566.028 592.722 566.719 594.127 568.102C595.532 569.462 596.235 571.434 596.235 574.018V585H593.175V574.46C593.175 572.601 592.71 571.185 591.781 570.21C590.852 569.213 589.582 568.714 587.973 568.714C586.341 568.714 585.038 569.224 584.063 570.244C583.111 571.264 582.635 572.749 582.635 574.698V585H579.541V566.368H582.635V569.02C583.247 568.068 584.074 567.331 585.117 566.81C586.182 566.289 587.35 566.028 588.619 566.028ZM617.065 585.306C615.637 585.306 614.356 585.068 613.223 584.592C612.09 584.093 611.194 583.413 610.537 582.552C609.88 581.668 609.517 580.659 609.449 579.526H612.645C612.736 580.455 613.166 581.215 613.937 581.804C614.73 582.393 615.762 582.688 617.031 582.688C618.21 582.688 619.139 582.427 619.819 581.906C620.499 581.385 620.839 580.727 620.839 579.934C620.839 579.118 620.476 578.517 619.751 578.132C619.026 577.724 617.904 577.327 616.385 576.942C615.002 576.579 613.869 576.217 612.985 575.854C612.124 575.469 611.376 574.913 610.741 574.188C610.129 573.44 609.823 572.465 609.823 571.264C609.823 570.312 610.106 569.439 610.673 568.646C611.24 567.853 612.044 567.229 613.087 566.776C614.13 566.3 615.32 566.062 616.657 566.062C618.72 566.062 620.386 566.583 621.655 567.626C622.924 568.669 623.604 570.097 623.695 571.91H620.601C620.533 570.935 620.136 570.153 619.411 569.564C618.708 568.975 617.756 568.68 616.555 568.68C615.444 568.68 614.56 568.918 613.903 569.394C613.246 569.87 612.917 570.493 612.917 571.264C612.917 571.876 613.11 572.386 613.495 572.794C613.903 573.179 614.402 573.497 614.991 573.746C615.603 573.973 616.442 574.233 617.507 574.528C618.844 574.891 619.932 575.253 620.771 575.616C621.61 575.956 622.324 576.477 622.913 577.18C623.525 577.883 623.842 578.801 623.865 579.934C623.865 580.954 623.582 581.872 623.015 582.688C622.448 583.504 621.644 584.15 620.601 584.626C619.581 585.079 618.402 585.306 617.065 585.306ZM644.995 568.918H641.085V585H637.991V568.918H635.577V566.368H637.991V565.042C637.991 562.957 638.523 561.438 639.589 560.486C640.677 559.511 642.411 559.024 644.791 559.024V561.608C643.431 561.608 642.467 561.88 641.901 562.424C641.357 562.945 641.085 563.818 641.085 565.042V566.368H644.995V568.918ZM665.908 585.306C664.163 585.306 662.576 584.909 661.148 584.116C659.743 583.323 658.632 582.201 657.816 580.75C657.023 579.277 656.626 577.577 656.626 575.65C656.626 573.746 657.034 572.069 657.85 570.618C658.689 569.145 659.822 568.023 661.25 567.252C662.678 566.459 664.276 566.062 666.044 566.062C667.812 566.062 669.41 566.459 670.838 567.252C672.266 568.023 673.388 569.133 674.204 570.584C675.043 572.035 675.462 573.723 675.462 575.65C675.462 577.577 675.031 579.277 674.17 580.75C673.331 582.201 672.187 583.323 670.736 584.116C669.285 584.909 667.676 585.306 665.908 585.306ZM665.908 582.586C667.019 582.586 668.061 582.325 669.036 581.804C670.011 581.283 670.793 580.501 671.382 579.458C671.994 578.415 672.3 577.146 672.3 575.65C672.3 574.154 672.005 572.885 671.416 571.842C670.827 570.799 670.056 570.029 669.104 569.53C668.152 569.009 667.121 568.748 666.01 568.748C664.877 568.748 663.834 569.009 662.882 569.53C661.953 570.029 661.205 570.799 660.638 571.842C660.071 572.885 659.788 574.154 659.788 575.65C659.788 577.169 660.06 578.449 660.604 579.492C661.171 580.535 661.919 581.317 662.848 581.838C663.777 582.337 664.797 582.586 665.908 582.586ZM691.804 569.394C692.348 568.329 693.119 567.501 694.116 566.912C695.136 566.323 696.371 566.028 697.822 566.028V569.224H697.006C693.538 569.224 691.804 571.105 691.804 574.868V585H688.71V566.368H691.804V569.394ZM732.98 566.028C734.43 566.028 735.722 566.334 736.856 566.946C737.989 567.535 738.884 568.431 739.542 569.632C740.199 570.833 740.528 572.295 740.528 574.018V585H737.468V574.46C737.468 572.601 737.003 571.185 736.074 570.21C735.167 569.213 733.932 568.714 732.368 568.714C730.758 568.714 729.478 569.235 728.526 570.278C727.574 571.298 727.098 572.783 727.098 574.732V585H724.038V574.46C724.038 572.601 723.573 571.185 722.644 570.21C721.737 569.213 720.502 568.714 718.938 568.714C717.328 568.714 716.048 569.235 715.096 570.278C714.144 571.298 713.668 572.783 713.668 574.732V585H710.574V566.368H713.668V569.054C714.28 568.079 715.096 567.331 716.116 566.81C717.158 566.289 718.303 566.028 719.55 566.028C721.114 566.028 722.496 566.379 723.698 567.082C724.899 567.785 725.794 568.816 726.384 570.176C726.905 568.861 727.766 567.841 728.968 567.116C730.169 566.391 731.506 566.028 732.98 566.028Z" fill="#F9F9F9"/>
</g>
<defs>
<linearGradient id="paint0_linear_37_2" x1="336" y1="-25.5" x2="662.891" y2="528.04" gradientUnits="userSpaceOnUse">
<stop stop-color="#C6003A"/>
<stop offset="1" stop-color="#FEC131"/>
</linearGradient>
<linearGradient id="paint1_linear_37_2" x1="235.802" y1="-31.4998" x2="467.086" y2="114.802" gradientUnits="userSpaceOnUse">
<stop stop-color="#C6003A"/>
<stop offset="1" stop-color="#FEC131"/>
</linearGradient>
<linearGradient id="paint2_linear_37_2" x1="10" y1="521" x2="232.888" y2="178.018" gradientUnits="userSpaceOnUse">
<stop stop-color="#C6003A"/>
<stop offset="1" stop-color="#FEC131"/>
</linearGradient>
<linearGradient id="paint3_linear_37_2" x1="9.99995" y1="521" x2="232.888" y2="178.018" gradientUnits="userSpaceOnUse">
<stop stop-color="#C6003A"/>
<stop offset="1" stop-color="#FEC131"/>
</linearGradient>
<linearGradient id="paint4_linear_37_2" x1="10" y1="521" x2="232.888" y2="178.018" gradientUnits="userSpaceOnUse">
<stop stop-color="#C6003A"/>
<stop offset="1" stop-color="#FEC131"/>
</linearGradient>
<clipPath id="clip0_37_2">
<rect width="744" height="599" fill="white"/>
</clipPath>
</defs>
</svg>
