<svg width="872" height="530" viewBox="0 0 872 530" fill="none" xmlns="http://www.w3.org/2000/svg">
<path d="M872 0.32665C851.751 45.7319 829.87 90.4838 806.355 134.582C782.84 178.354 758.183 219.84 732.382 259.039C706.908 298.237 680.781 334.496 654 367.815C627.219 400.807 600.602 429.39 574.148 453.562C548.021 477.408 522.383 496.191 497.236 509.911C472.415 523.304 448.9 530 426.692 530C417.548 530 409.056 528.367 401.218 525.1C393.38 521.834 386.521 517.424 380.643 511.87C374.764 505.991 370.192 499.131 366.926 491.291C363.66 483.452 362.027 474.958 362.027 465.812V228.169L109.245 510.891C102.713 517.424 95.5281 522.324 87.6899 525.59C80.1783 528.53 72.3401 530 64.1753 530C55.3573 530 47.0292 528.367 39.191 525.1C31.6794 521.834 24.9843 517.424 19.1056 511.87C13.227 505.991 8.49139 499.131 4.89888 491.291C1.63296 483.452 0 474.958 0 465.812V0.32665H127.371V302.157L381.133 18.4561C390.277 9.30973 401.055 3.59322 413.465 1.30662C426.202 -1.30663 438.613 1.60727e-06 450.697 5.2265C462.781 10.1264 472.252 17.9661 479.11 28.7458C486.295 39.1988 489.888 50.7951 489.888 63.5347V366.345C517.321 339.886 542.142 311.957 564.351 282.558C586.559 253.159 607.134 222.943 626.076 191.911C645.345 160.552 663.308 128.866 679.964 96.8536C696.947 64.5147 713.44 32.339 729.443 0.32665H872Z" fill="url(#paint0_linear_120_2)"/>
<defs>
<linearGradient id="paint0_linear_120_2" x1="53.9841" y1="529.998" x2="1257.56" y2="-1321.71" gradientUnits="userSpaceOnUse">
<stop stop-color="#C6003A"/>
<stop offset="1" stop-color="#FEC131"/>
</linearGradient>
</defs>
</svg>
